<?xml version="1.0" encoding="UTF-8"?>
<svg version="1.1" xmlns="http://www.w3.org/2000/svg" width="500" height="500">
<path d="M0 0 C1.34814676 1.31835347 2.68319371 2.65034199 4 4 C4.7425 4.53625 5.485 5.0725 6.25 5.625 C6.8275 6.07875 7.405 6.5325 8 7 C8 7.66 8 8.32 8 9 C8.99 9.33 9.98 9.66 11 10 C11 10.66 11 11.32 11 12 C11.99 12.33 12.98 12.66 14 13 C16.17939466 15.24735084 17.92406488 17.83695018 19.75 20.375 C20.25015625 21.02210938 20.7503125 21.66921875 21.265625 22.3359375 C27.35422286 30.78542024 29.13071127 38.49764486 33 49 C33.33 28.21 33.66 7.42 34 -14 C57.76 -14 81.52 -14 106 -14 C106 -13.34 106 -12.68 106 -12 C104.82824219 -11.64808594 103.65648437 -11.29617187 102.44921875 -10.93359375 C93.08357054 -8.02928468 84.91759449 -4.95403105 77 1 C76.16339844 1.60585937 75.32679688 2.21171875 74.46484375 2.8359375 C55.65950147 17.07800507 44.18509351 36.87408139 40.6809082 60.11645508 C37.76740743 82.49991034 44.17984963 104.22573381 57.4375 122.375 C62.14338317 128.377402 67.0312811 134.22411246 73.5 138.375 C74.325 138.91125 75.15 139.4475 76 140 C76 140.66 76 141.32 76 142 C77.2065625 142.3403125 77.2065625 142.3403125 78.4375 142.6875 C81.28607656 143.73697558 83.47889589 144.79665848 86.0625 146.3125 C91.75548716 149.58791727 97.84156829 151.76316623 104 154 C104 154.33 104 154.66 104 155 C80.9 155 57.8 155 34 155 C34 133.22 34 111.44 34 89 C31.525 96.425 31.525 96.425 29 104 C28.018568 106.67355612 27.02963178 109.34463383 26 112 C25.34 112 24.68 112 24 112 C23.88068115 112.5887793 23.7613623 113.17755859 23.63842773 113.78417969 C22.58460072 117.44174525 20.27509451 120.19643338 18.0625 123.25 C17.60681641 123.8996875 17.15113281 124.549375 16.68164062 125.21875 C15.50907797 126.85312724 14.25988848 128.43195244 13 130 C12.34 130 11.68 130 11 130 C11 130.66 11 131.32 11 132 C11.598125 132.268125 12.19625 132.53625 12.8125 132.8125 C14.99847854 133.99917406 16.41332594 135.09599113 18 137 C18 137.66 18 138.32 18 139 C18.99 139.33 19.98 139.66 21 140 C21 140.66 21 141.32 21 142 C21.99 142.33 22.98 142.66 24 143 C23.4409112 146.24271506 22.5867822 147.93057424 20 150 C19.34 150 18.68 150 18 150 C17.835 150.680625 17.67 151.36125 17.5 152.0625 C15.61377004 155.756367 13.13250429 157.7235237 9.9765625 160.3515625 C7.85619165 162.11993502 5.91155908 164.00879263 4 166 C-2.03331362 161.01595832 -7.5184171 155.58084697 -13 150 C-13.80050781 150.27263672 -13.80050781 150.27263672 -14.6171875 150.55078125 C-17.07414017 151.37968397 -19.53604688 152.19214652 -22 153 C-23.18916016 153.39445312 -23.18916016 153.39445312 -24.40234375 153.796875 C-50.65743222 162.13722725 -74.17613549 157.17169402 -98 145 C-98 144.34 -98 143.68 -98 143 C-99.09054688 142.62875 -99.09054688 142.62875 -100.203125 142.25 C-108.69491181 138.45478802 -116.45216762 129.31707278 -122 122 C-122.74609375 119.70703125 -122.74609375 119.70703125 -123 118 C-123.66 118 -124.32 118 -125 118 C-130.52776618 107.15913818 -134.56329641 96.94948429 -137 85 C-137.19207031 84.20851563 -137.38414062 83.41703125 -137.58203125 82.6015625 C-140.63081844 63.62499924 -135.67050653 46.16932558 -128 29 C-127.34 29 -126.68 29 -126 29 C-125.91621094 28.28199219 -125.83242187 27.56398437 -125.74609375 26.82421875 C-122.81908673 15.74450106 -108.32592107 3.88650721 -99 -2.27734375 C-67.99383435 -20.08166543 -29.80261861 -21.92579239 0 0 Z M-93.0859375 32.06640625 C-96.03355802 35.09160817 -96.03355802 35.09160817 -97 39 C-97.66 39 -98.32 39 -99 39 C-107.19546873 54.51632222 -110.57493261 69.66341325 -106 87 C-101.15000703 102.32434752 -91.19487548 114.30409951 -77 121.8125 C-63.63826977 127.99386118 -51.39955833 128.81023638 -37 126 C-40.20760251 122.19364503 -43.40746109 118.45436433 -47 115 C-45.54254576 111.63664406 -43.68882146 109.45465995 -41.0859375 106.890625 C-39.94511719 105.75947266 -39.94511719 105.75947266 -38.78125 104.60546875 C-37.9871875 103.82816406 -37.193125 103.05085938 -36.375 102.25 C-35.57320313 101.45722656 -34.77140625 100.66445313 -33.9453125 99.84765625 C-31.96797154 97.89385507 -29.98611091 95.94487897 -28 94 C-26.50260417 95.30208333 -25.00520833 96.60416667 -23.5078125 97.90625 C-22.04063579 99.19572458 -22.04063579 99.19572458 -20 99 C-19.773125 99.5775 -19.54625 100.155 -19.3125 100.75 C-17.67083893 103.56427613 -15.56440947 105.02737733 -13 107 C-12.67 107.66 -12.34 108.32 -12 109 C-10.68 108.67 -9.36 108.34 -8 108 C-8 107.34 -8 106.68 -8 106 C-7.34 106 -6.68 106 -6 106 C-2.80439959 101.93426439 -2.80439959 101.93426439 -2 97 C-1.34 97 -0.68 97 0 97 C6.33101968 82.28037926 7.82170406 65.98476346 2.1953125 50.71875 C0.3850175 46.60121628 -1.52896796 42.76239058 -4 39 C-4.68449219 37.91138672 -4.68449219 37.91138672 -5.3828125 36.80078125 C-13.21052881 25.53122987 -25.82220572 18.14737497 -39 15 C-59.58840445 11.55328051 -78.25625304 17.37557651 -93.0859375 32.06640625 Z " fill="#212328" transform="translate(296,184)"/>
<path d="M0 0 C6.53278786 -0.02527002 13.06556321 -0.04283292 19.59838867 -0.05493164 C21.82267732 -0.05997317 24.04696263 -0.06680623 26.27124023 -0.07543945 C29.46078309 -0.08751298 32.65028229 -0.09322996 35.83984375 -0.09765625 C37.34139259 -0.10539818 37.34139259 -0.10539818 38.87327576 -0.11329651 C40.25459435 -0.11340981 40.25459435 -0.11340981 41.66381836 -0.11352539 C42.47878281 -0.115746 43.29374725 -0.11796661 44.13340759 -0.12025452 C46 0 46 0 47 1 C47.09695318 3.16426174 47.12186765 5.33175253 47.12025452 7.4981842 C47.12110894 8.18507543 47.12196337 8.87196665 47.12284368 9.57967275 C47.12450045 11.89827455 47.11897393 14.21680517 47.11352539 16.53540039 C47.11324354 18.19069924 47.11340122 19.84599822 47.1139679 21.501297 C47.11425594 26.00936933 47.10835819 30.51741529 47.10139394 35.02548146 C47.09516145 39.73137737 47.09455668 44.43727382 47.09336853 49.14317322 C47.0902549 58.06088634 47.08204109 66.97858727 47.07201904 75.89629501 C47.06085888 86.04606297 47.0553477 96.1958315 47.05032361 106.34560406 C47.0398585 127.23041104 47.02151264 148.11520128 47 169 C32.15 169 17.3 169 2 169 C4.60399458 166.39600542 7.00118598 165.89091762 10.5 164.75 C16.16484606 162.84100244 21.11152557 160.42172905 26.109375 157.13671875 C28 156 28 156 30 156 C30 155.34 30 154.68 30 154 C31.97946592 152.63636792 33.9819245 151.30581356 36 150 C37.85801239 148.56308045 37.85801239 148.56308045 39 147 C39 146.01 39 145.02 39 144 C37.54875192 142.74664939 36.0898457 141.50001978 34.578125 140.3203125 C32.38097055 138.48209912 30.78635247 136.23294059 29 134 C27.05688161 132.25320704 25.03761213 130.63894889 23 129 C22.34 128.34 21.68 127.68 21 127 C20.38125 127.495 19.7625 127.99 19.125 128.5 C17 130 17 130 15 130 C15 130.66 15 131.32 15 132 C12.48287811 133.29935464 9.96170913 134.58954372 7.4375 135.875 C6.73302734 136.23980469 6.02855469 136.60460937 5.30273438 136.98046875 C-7.01922265 143.22662208 -21.91410708 145.12009637 -35.2578125 140.9921875 C-41.84059798 138.56373531 -48.00410504 135.64091813 -54 132 C-54 131.34 -54 130.68 -54 130 C-54.58652344 129.75121094 -55.17304688 129.50242187 -55.77734375 129.24609375 C-58.31056333 127.82588804 -59.70985353 126.28816254 -61.5625 124.0625 C-63.93120146 121.21646974 -63.93120146 121.21646974 -66.52734375 118.5859375 C-75.78604116 108.6150326 -77.79040868 93.26896039 -77.34765625 80.25 C-76.66697903 69.45675261 -72.58469556 60.12166942 -67 51 C-66.34 51 -65.68 51 -65 51 C-64.773125 50.443125 -64.54625 49.88625 -64.3125 49.3125 C-61.88579746 45.03688123 -58.56749627 41.86083181 -54 40 C-54 39.34 -54 38.68 -54 38 C-51.48287811 36.70064536 -48.96170913 35.41045628 -46.4375 34.125 C-45.73302734 33.76019531 -45.02855469 33.39539063 -44.30273438 33.01953125 C-36.03730398 28.82968174 -28.89561215 27.65762293 -19.6875 27.6875 C-18.70587891 27.67138672 -17.72425781 27.65527344 -16.71289062 27.63867188 C-6.9304805 27.63219775 1.08452 29.9787736 9.4375 35 C10.03498047 35.34289062 10.63246094 35.68578125 11.24804688 36.0390625 C14.20259851 37.76887821 16.64905795 39.52177765 19 42 C21.10332891 42.71447643 21.10332891 42.71447643 23 43 C23 42.34 23 41.68 23 41 C24.46190139 39.77067383 25.92797383 38.54570309 27.421875 37.35546875 C29.18818536 35.92307362 29.18818536 35.92307362 31 33.5 C32.69858334 31.37677082 34.14105083 30.02076874 36.25 28.375 C37.1575 27.59125 38.065 26.8075 39 26 C39.34069593 22.91498297 39.34069593 22.91498297 37.15625 21.01953125 C26.12797576 11.8563328 13.76742481 5.96334957 0 2 C0 1.34 0 0.68 0 0 Z " fill="#202228" transform="translate(441,170)"/>
<path d="M0 0 C9.57 0 19.14 0 29 0 C29 46.2 29 92.4 29 140 C66.95 140 104.9 140 144 140 C144 149.57 144 159.14 144 169 C96.15 169 48.3 169 -1 169 C-1.04030303 126.91019793 -1.04030303 126.91019793 -1.04882812 109.33007812 C-1.0547716 97.17097555 -1.0617746 85.01187988 -1.07543945 72.8527832 C-1.08538488 63.99906374 -1.09185309 55.14534986 -1.09408849 46.29162496 C-1.09539584 41.60062465 -1.09848321 36.90964031 -1.10573006 32.2186451 C-1.11248805 27.80860748 -1.11461742 23.39859249 -1.11310768 18.98855019 C-1.11338411 17.36512377 -1.11539054 15.74169664 -1.11920547 14.11827469 C-1.12413928 11.9115495 -1.12299947 9.70491117 -1.12025452 7.4981842 C-1.12117631 6.26021623 -1.1220981 5.02224825 -1.12304783 3.74676609 C-1 1 -1 1 0 0 Z " fill="#212328" transform="translate(15,170)"/>
<path d="M0 0 C10.625 -0.25 10.625 -0.25 14 2 C14.1875 5.125 14.1875 5.125 14 8 C13.34 8 12.68 8 12 8 C12 8.66 12 9.32 12 10 C12.66 10 13.32 10 14 10 C14.92177046 13.37982503 15.41401228 15.21337667 13.75 18.375 C9.29694748 21.00634921 5.10440189 20.24306676 0 20 C0 13.4 0 6.8 0 0 Z M4 2 C4 3.98 4 5.96 4 8 C5.65 8 7.3 8 9 8 C9 7.34 9 6.68 9 6 C9.66 5.67 10.32 5.34 11 5 C7.94419026 2.41222792 7.94419026 2.41222792 4 2 Z M4 11 C4 12.98 4 14.96 4 17 C7.465 16.505 7.465 16.505 11 16 C10.67 14.35 10.34 12.7 10 11 C8.02 11 6.04 11 4 11 Z " fill="#433B2B" transform="translate(12,372)"/>
<path d="M0 0 C0.99 0 1.98 0 3 0 C3.99 2.31 4.98 4.62 6 7 C6.66 4.69 7.32 2.38 8 0 C9.32 0 10.64 0 12 0 C12.66 2.31 13.32 4.62 14 7 C14.99 4.69 15.98 2.38 17 0 C17.99 0 18.98 0 20 0 C19.71743908 1.93884889 19.4236207 3.87605961 19.125 5.8125 C18.96257812 6.89144531 18.80015625 7.97039062 18.6328125 9.08203125 C18 12 18 12 16 15 C15.01 15 14.02 15 13 15 C12.34 12.03 11.68 9.06 11 6 C10.34 6 9.68 6 9 6 C8.67 8.97 8.34 11.94 8 15 C6.35 15 4.7 15 3 15 C2.49564306 13.0636296 1.99666126 11.12585854 1.5 9.1875 C1.2215625 8.10855469 0.943125 7.02960938 0.65625 5.91796875 C0 3 0 3 0 0 Z " fill="#37332A" transform="translate(84,377)"/>
<path d="M0 0 C2.08133467 3.122002 2.2737822 3.93266989 2.25 7.5 C2.25515625 8.2734375 2.2603125 9.046875 2.265625 9.84375 C2 12 2 12 0 15 C-1.9453125 15.29296875 -1.9453125 15.29296875 -4.125 15.1875 C-5.40375 15.125625 -6.6825 15.06375 -8 15 C-8 16.65 -8 18.3 -8 20 C-8.99 20 -9.98 20 -11 20 C-11 13.4 -11 6.8 -11 0 C-6.50552991 -0.89889402 -4.29307885 -1.14482103 0 0 Z M-6 2 C-8.41121859 3.95633975 -8.41121859 3.95633975 -8.125 7.625 C-8.08375 8.73875 -8.0425 9.8525 -8 11 C-6.02 11.99 -6.02 11.99 -4 13 C-2.29264699 11.96431405 -2.29264699 11.96431405 -1 10 C-1.23477199 6.35458155 -1.23477199 6.35458155 -2 3 C-3.89179203 2.3185177 -3.89179203 2.3185177 -6 2 Z " fill="#3D372B" transform="translate(362,377)"/>
<path d="M0 0 C1.875 1.25 1.875 1.25 3 3 C3 4.65 3 6.3 3 8 C-0.63 8 -4.26 8 -8 8 C-7.01 9.32 -6.02 10.64 -5 12 C-1.535 11.505 -1.535 11.505 2 11 C2 12.32 2 13.64 2 15 C-4.20081967 16.33743169 -4.20081967 16.33743169 -7.8125 14.8125 C-10.16919618 12.85980888 -11.18326509 11.94024566 -12 9 C-11.9375 5.4375 -11.9375 5.4375 -11 2 C-7.3487558 -1.33828041 -4.64215415 -1.41282953 0 0 Z M-6.625 3.4375 C-8.11010465 4.77822672 -8.11010465 4.77822672 -8 6 C-5.69 6 -3.38 6 -1 6 C-1.66 4.68 -2.32 3.36 -3 2 C-5.11192937 1.77914204 -5.11192937 1.77914204 -6.625 3.4375 Z " fill="#322F2A" transform="translate(379,377)"/>
<path d="M0 0 C3.16420858 4.74631287 2.12112755 9.36756877 2 15 C-1.96 15 -5.92 15 -10 15 C-11.35439668 12.29120665 -11.06501451 9.99066732 -11 7 C-8.03 6.01 -5.06 5.02 -2 4 C-4.76264289 3.40267181 -7.16032769 3 -10 3 C-10 2.01 -10 1.02 -10 0 C-6.42030426 -1.23912545 -3.64409679 -0.95063395 0 0 Z M-8 9 C-7.34 10.32 -6.68 11.64 -6 13 C-3.9837767 12.28436734 -3.9837767 12.28436734 -2 11 C-1.19471111 8.94999129 -1.19471111 8.94999129 -1 7 C-3.6465335 7 -5.5808163 7.98139634 -8 9 Z " fill="#36322A" transform="translate(208,377)"/>
<path d="M0 0 C2.93925582 1.02234985 3.99845187 1.59976402 5.875 4 C6.2734375 6.15625 6.2734375 6.15625 6.25 8.5 C6.25773437 9.2734375 6.26546875 10.046875 6.2734375 10.84375 C5.78512788 13.48636677 4.95034235 14.3468474 2.875 16 C0.23624987 17.14345839 -0.94055792 17.04830626 -3.75 16.3125 C-6.54006607 14.77062138 -7.20107014 14.02377045 -8.125 11 C-8.73826587 6.88235773 -8.47090611 5.47816432 -6 2.0625 C-3.125 0 -3.125 0 0 0 Z M-3.125 4 C-4.54077477 5.18424326 -4.54077477 5.18424326 -4.1875 8.5625 C-4.166875 9.696875 -4.14625 10.83125 -4.125 12 C-1.72780568 12.67958603 -1.72780568 12.67958603 0.875 13 C3.1241908 11.17296773 3.1241908 11.17296773 3.125 8.5 C3.1241908 5.82703227 3.1241908 5.82703227 0.875 4 C-0.445 4 -1.765 4 -3.125 4 Z " fill="#51452D" transform="translate(467.125,376)"/>
<path d="M0 0 C2.23892859 2.82299691 2 4.2791079 2 8 C-1.63 8 -5.26 8 -9 8 C-8.01 9.32 -7.02 10.64 -6 12 C-2.535 11.505 -2.535 11.505 1 11 C1 12.32 1 13.64 1 15 C-3.39758479 16.02269414 -5.97129666 16.1262601 -10 14 C-12.41486943 11.58513057 -12.2961925 10.87292211 -12.3125 7.5625 C-12.32925781 6.78003906 -12.34601563 5.99757813 -12.36328125 5.19140625 C-11.91718442 2.50043504 -11.10548092 1.67516365 -9 0 C-5.81926598 -1.59036701 -3.37573597 -0.78365299 0 0 Z M-6 2 C-7.79252059 3.29209912 -7.79252059 3.29209912 -9 5 C-9 5.33 -9 5.66 -9 6 C-6.69 6 -4.38 6 -2 6 C-2 5.01 -2 4.02 -2 3 C-3.83700789 2.22757731 -3.83700789 2.22757731 -6 2 Z " fill="#332F2A" transform="translate(192,377)"/>
<path d="M0 0 C0.99 0 1.98 0 3 0 C3.33 1.98 3.66 3.96 4 6 C5.11375 5.690625 5.11375 5.690625 6.25 5.375 C9 5 9 5 13 7 C13 11.62 13 16.24 13 21 C12.01 21 11.02 21 10 21 C9.67 17.04 9.34 13.08 9 9 C7.68 9.33 6.36 9.66 5 10 C3.85185003 12.29629994 3.69230191 14.07698086 3.4375 16.625 C3.35371094 17.44226563 3.26992187 18.25953125 3.18359375 19.1015625 C3.12300781 19.72804688 3.06242188 20.35453125 3 21 C2.01 21 1.02 21 0 21 C0 14.07 0 7.14 0 0 Z " fill="#37332A" transform="translate(127,371)"/>
<path d="M0 0 C2.16898181 2.85911239 2 4.28443578 2 8 C-1.63 8 -5.26 8 -9 8 C-8.01 9.32 -7.02 10.64 -6 12 C-2.535 11.505 -2.535 11.505 1 11 C1 12.32 1 13.64 1 15 C-3.39758479 16.02269414 -5.97129666 16.1262601 -10 14 C-12.41486943 11.58513057 -12.2961925 10.87292211 -12.3125 7.5625 C-12.32925781 6.78003906 -12.34601563 5.99757813 -12.36328125 5.19140625 C-11.91392045 2.48074592 -11.15823513 1.65279365 -9 0 C-5.44712603 -1.18429132 -3.58589143 -0.99184231 0 0 Z M-6 2 C-7.70532323 3.94009522 -7.70532323 3.94009522 -9 6 C-6.36 6 -3.72 6 -1 6 C-1.66 4.68 -2.32 3.36 -3 2 C-3.99 2 -4.98 2 -6 2 Z " fill="#302E29" transform="translate(419,377)"/>
<path d="M0 0 C1.9375 1.5 1.9375 1.5 3 4 C2.93684789 7.05235214 2.5326216 9.99678421 2 13 C1.34 13 0.68 13 0 13 C0 13.66 0 14.32 0 15 C-3.32292824 16.04434887 -4.56758901 16.2162055 -7.75 14.625 C-10 13 -10 13 -11 12 C-11.203125 10.0390625 -11.203125 10.0390625 -11.25 7.625 C-11.27578125 6.83351563 -11.3015625 6.04203125 -11.328125 5.2265625 C-10.92509199 2.49169567 -10.13647286 1.69051008 -8 0 C-5.03475663 -1.48262169 -3.14877613 -0.83538959 0 0 Z M-6.75 3.125 C-8.41539291 5.62308937 -8.44233017 7.05113223 -8 10 C-6.72840348 11.85602615 -6.72840348 11.85602615 -5 13 C-4.34 13 -3.68 13 -3 13 C-3 12.34 -3 11.68 -3 11 C-2.34 11 -1.68 11 -1 11 C-1 8.36 -1 5.72 -1 3 C-3.96745087 1.85214019 -3.96745087 1.85214019 -6.75 3.125 Z " fill="#302D29" transform="translate(324,377)"/>
<path d="M0 0 C0.99 0 1.98 0 3 0 C3.474375 1.134375 3.94875 2.26875 4.4375 3.4375 C5.63622083 6.75740166 5.63622083 6.75740166 7 8 C7.99 5.36 8.98 2.72 10 0 C11.32 0 12.64 0 14 0 C8.38297872 17.61702128 8.38297872 17.61702128 6 20 C4.00041636 20.04080783 1.99954746 20.04254356 0 20 C0 19.34 0 18.68 0 18 C0.99 17.67 1.98 17.34 3 17 C4.22787058 13.31638827 3.6048575 12.51592673 2.0625 9.0625 C0.50942421 5.57202798 0 3.93689355 0 0 Z " fill="#3B352B" transform="translate(270,377)"/>
<path d="M0 0 C1.44207941 2.88415883 1.09394887 5.41721528 1.0625 8.625 C1.05347656 9.81351562 1.04445313 11.00203125 1.03515625 12.2265625 C1.02355469 13.14179688 1.01195312 14.05703125 1 15 C0.01 15 -0.98 15 -2 15 C-2.33 11.04 -2.66 7.08 -3 3 C-6.74275212 3.57125354 -6.74275212 3.57125354 -8 5 C-8.23287008 6.68183948 -8.41264166 8.3712416 -8.5625 10.0625 C-8.68818359 11.44115234 -8.68818359 11.44115234 -8.81640625 12.84765625 C-8.87699219 13.55792969 -8.93757813 14.26820313 -9 15 C-9.99 15 -10.98 15 -12 15 C-12 10.05 -12 5.1 -12 0 C-7.08068056 -0.81988657 -4.6136787 -1.18024339 0 0 Z " fill="#35312A" transform="translate(489,377)"/>
<path d="M0 0 C2.35119399 3.52679099 2.21443452 5.02879485 2.125 9.1875 C2.10695313 10.27417969 2.08890625 11.36085938 2.0703125 12.48046875 C2.03550781 13.72763672 2.03550781 13.72763672 2 15 C1.01 15 0.02 15 -1 15 C-1.33 11.37 -1.66 7.74 -2 4 C-3.65 3.67 -5.3 3.34 -7 3 C-7.33 6.96 -7.66 10.92 -8 15 C-8.99 15 -9.98 15 -11 15 C-11 10.05 -11 5.1 -11 0 C-6.50552991 -0.89889402 -4.29307885 -1.14482103 0 0 Z " fill="#2B2A29" transform="translate(307,377)"/>
<path d="M0 0 C0.99 0 1.98 0 3 0 C3.33 3.63 3.66 7.26 4 11 C5.32 11 6.64 11 8 11 C9.66342837 9.33657163 9.36048097 7.2174291 9.5625 4.9375 C9.64628906 4.01839844 9.73007812 3.09929687 9.81640625 2.15234375 C9.87699219 1.44207031 9.93757813 0.73179687 10 0 C10.99 0 11.98 0 13 0 C13 4.95 13 9.9 13 15 C4.6015625 15.1953125 4.6015625 15.1953125 2 15 C0 13 0 13 -0.1953125 9.9609375 C-0.17210938 8.77757812 -0.14890625 7.59421875 -0.125 6.375 C-0.10695313 5.18648438 -0.08890625 3.99796875 -0.0703125 2.7734375 C-0.04710938 1.85820312 -0.02390625 0.94296875 0 0 Z " fill="#322F2A" transform="translate(31,377)"/>
<path d="M0 0 C1.32 0 2.64 0 4 0 C4.99 2.97 5.98 5.94 7 9 C8.32 6.03 9.64 3.06 11 0 C11.99 0 12.98 0 14 0 C13.43179252 5.45479185 12.05362055 9.91059256 10 15 C8.35 15 6.7 15 5 15 C4.16260219 12.8765984 3.33019717 10.7512272 2.5 8.625 C1.80390625 6.84996094 1.80390625 6.84996094 1.09375 5.0390625 C0 2 0 2 0 0 Z " fill="#312E29" transform="translate(233,377)"/>
<path d="M0 0 C0 0.99 0 1.98 0 3 C-2.64 3 -5.28 3 -8 3 C-8 5.31 -8 7.62 -8 10 C-5.09399739 11.25664978 -3.20395416 12 0 12 C0 12.99 0 13.98 0 15 C-4.03098931 16.15171123 -6.29341391 16.00356005 -10 14 C-12.52454805 10.21317793 -12.62183425 7.44565082 -12 3 C-8.65636443 -1.71148649 -5.30971706 -0.88495284 0 0 Z " fill="#38332A" transform="translate(165,377)"/>
<path d="M0 0 C1.4540625 0.0309375 1.4540625 0.0309375 2.9375 0.0625 C2.9375 1.0525 2.9375 2.0425 2.9375 3.0625 C2.298125 3.18625 1.65875 3.31 1 3.4375 C0.319375 3.64375 -0.36125 3.85 -1.0625 4.0625 C-1.3925 4.7225 -1.7225 5.3825 -2.0625 6.0625 C-0.7425 6.0625 0.5775 6.0625 1.9375 6.0625 C1.9375 6.7225 1.9375 7.3825 1.9375 8.0625 C0.6175 8.0625 -0.7025 8.0625 -2.0625 8.0625 C-2.0625 12.3525 -2.0625 16.6425 -2.0625 21.0625 C-3.0525 21.0625 -4.0425 21.0625 -5.0625 21.0625 C-5.0625 16.7725 -5.0625 12.4825 -5.0625 8.0625 C-5.7225 8.0625 -6.3825 8.0625 -7.0625 8.0625 C-7.0625 7.4025 -7.0625 6.7425 -7.0625 6.0625 C-6.4025 6.0625 -5.7425 6.0625 -5.0625 6.0625 C-4.918125 5.258125 -4.77375 4.45375 -4.625 3.625 C-3.8465 0.0785 -3.8465 0.0785 0 0 Z " fill="#312F29" transform="translate(403.0625,370.9375)"/>
<path d="M0 0 C0 0.99 0 1.98 0 3 C-0.94875 2.95875 -1.8975 2.9175 -2.875 2.875 C-6.10244856 2.65026182 -6.10244856 2.65026182 -8 5 C-8.16687448 7.58354218 -8.16687448 7.58354218 -8 10 C-5.09399739 11.25664978 -3.20395416 12 0 12 C0 12.99 0 13.98 0 15 C-4.03098931 16.15171123 -6.29341391 16.00356005 -10 14 C-12.47342266 10.28986601 -12.38503486 8.38939738 -12 4 C-9.000693 -1.42731744 -5.65917526 -1.13183505 0 0 Z " fill="#3C372B" transform="translate(436,377)"/>
<path d="M0 0 C0.99 0 1.98 0 3 0 C3 1.32 3 2.64 3 4 C4.65 4 6.3 4 8 4 C8 4.66 8 5.32 8 6 C6.35 6 4.7 6 3 6 C3 9.3 3 12.6 3 16 C4.65 16 6.3 16 8 16 C8 16.99 8 17.98 8 19 C5.66705225 19.04241723 3.33297433 19.04092937 1 19 C-0.70979248 17.29020752 -0.32834799 14.96069337 -0.5 12.625 C-0.73236344 9.47979491 -0.99875969 7.00372093 -2 4 C-1.34 4 -0.68 4 0 4 C0 2.68 0 1.36 0 0 Z " fill="#463D2C" transform="translate(441,373)"/>
<path d="M0 0 C0.99 0 1.98 0 3 0 C3.33 0.99 3.66 1.98 4 3 C6.01508358 3.73323796 6.01508358 3.73323796 8 4 C8 4.66 8 5.32 8 6 C6.68 6.33 5.36 6.66 4 7 C4 9.64 4 12.28 4 15 C5.32 15.33 6.64 15.66 8 16 C8 16.99 8 17.98 8 19 C5.125 19.1875 5.125 19.1875 2 19 C-0.20914 15.68629 -0.22481553 14.6553979 -0.125 10.8125 C-0.10695312 9.91144531 -0.08890625 9.01039063 -0.0703125 8.08203125 C-0.04710937 7.39496094 -0.02390625 6.70789063 0 6 C-0.66 6 -1.32 6 -2 6 C-2 5.34 -2 4.68 -2 4 C-1.34 4 -0.68 4 0 4 C0 2.68 0 1.36 0 0 Z " fill="#3E382B" transform="translate(215,373)"/>
<path d="M0 0 C0.99 0 1.98 0 3 0 C3 1.32 3 2.64 3 4 C4.65 4 6.3 4 8 4 C8 4.66 8 5.32 8 6 C6.35 6 4.7 6 3 6 C3 9.3 3 12.6 3 16 C4.65 16 6.3 16 8 16 C8 16.99 8 17.98 8 19 C5.125 19.125 5.125 19.125 2 19 C0 17 0 17 -0.1953125 14.3984375 C-0.17210937 13.40070313 -0.14890625 12.40296875 -0.125 11.375 C-0.10695313 10.37210937 -0.08890625 9.36921875 -0.0703125 8.3359375 C-0.04710937 7.56507813 -0.02390625 6.79421875 0 6 C-0.66 6 -1.32 6 -2 6 C-2 5.34 -2 4.68 -2 4 C-1.34 4 -0.68 4 0 4 C0 2.68 0 1.36 0 0 Z " fill="#302D29" transform="translate(331,373)"/>
<path d="M0 0 C0.99 0 1.98 0 3 0 C3 1.32 3 2.64 3 4 C4.65 4 6.3 4 8 4 C8 4.66 8 5.32 8 6 C6.35 6 4.7 6 3 6 C3.33 8.97 3.66 11.94 4 15 C5.32 15.33 6.64 15.66 8 16 C8 16.99 8 17.98 8 19 C5.125 19.1875 5.125 19.1875 2 19 C-0.20914 15.68629 -0.22481553 14.6553979 -0.125 10.8125 C-0.10695313 9.91144531 -0.08890625 9.01039063 -0.0703125 8.08203125 C-0.04710938 7.39496094 -0.02390625 6.70789063 0 6 C-0.66 6 -1.32 6 -2 6 C-2 5.34 -2 4.68 -2 4 C-1.34 4 -0.68 4 0 4 C0 2.68 0 1.36 0 0 Z " fill="#2C2B29" transform="translate(116,373)"/>
<path d="M0 0 C0.99 0 1.98 0 3 0 C3 1.32 3 2.64 3 4 C4.32 4 5.64 4 7 4 C7 4.66 7 5.32 7 6 C5.68 6 4.36 6 3 6 C3 9.3 3 12.6 3 16 C4.32 16 5.64 16 7 16 C7 16.99 7 17.98 7 19 C5.00045254 19.04254356 2.99958364 19.04080783 1 19 C-0.70979248 17.29020752 -0.32834799 14.96069337 -0.5 12.625 C-0.73236344 9.47979491 -0.99875969 7.00372093 -2 4 C-1.34 4 -0.68 4 0 4 C0 2.68 0 1.36 0 0 Z " fill="#3A342B" transform="translate(66,373)"/>
<path d="M0 0 C0.99 0 1.98 0 3 0 C3 1.32 3 2.64 3 4 C4.32 4 5.64 4 7 4 C7 4.66 7 5.32 7 6 C5.68 6 4.36 6 3 6 C3 9.3 3 12.6 3 16 C4.32 16 5.64 16 7 16 C7 16.99 7 17.98 7 19 C5.00045254 19.04254356 2.99958364 19.04080783 1 19 C-0.70979248 17.29020752 -0.32834799 14.96069337 -0.5 12.625 C-0.73236344 9.47979491 -0.99875969 7.00372093 -2 4 C-1.34 4 -0.68 4 0 4 C0 2.68 0 1.36 0 0 Z " fill="#39342B" transform="translate(260,373)"/>
<path d="M0 0 C0 0.66 0 1.32 0 2 C-1.98 2.33 -3.96 2.66 -6 3 C-6 6.96 -6 10.92 -6 15 C-7.32 15 -8.64 15 -10 15 C-10 10.05 -10 5.1 -10 0 C-3.25 -1.125 -3.25 -1.125 0 0 Z " fill="#4A402C" transform="translate(179,377)"/>
<path d="M0 0 C0 0.66 0 1.32 0 2 C-1.65 2.33 -3.3 2.66 -5 3 C-5.33 6.96 -5.66 10.92 -6 15 C-6.99 15 -7.98 15 -9 15 C-9 10.05 -9 5.1 -9 0 C-3.375 -1.125 -3.375 -1.125 0 0 Z " fill="#322F2A" transform="translate(395,377)"/>
<path d="M0 0 C0.99 0 1.98 0 3 0 C3 6.93 3 13.86 3 21 C2.01 21 1.02 21 0 21 C0 14.07 0 7.14 0 0 Z " fill="#312E2A" transform="translate(57,371)"/>
<path d="M0 0 C1.32 0 2.64 0 4 0 C5.16343227 2.32686453 5.19895988 3.84721413 5.25 6.4375 C5.28867187 7.61119141 5.28867187 7.61119141 5.328125 8.80859375 C4.9231122 11.51350067 4.11535031 12.32835732 2 14 C-0.71952371 15.17846027 -1.81221201 15.05677311 -4.6875 14.1875 C-7 13 -7 13 -8 11 C-5.03 11 -2.06 11 1 11 C1.12469099 5.42169984 1.12469099 5.42169984 0 0 Z " fill="#36322A" transform="translate(468,378)"/>
<path d="M0 0 C2.31 0 4.62 0 7 0 C7.66 0.66 8.32 1.32 9 2 C6.69 2 4.38 2 2 2 C2 4.31 2 6.62 2 9 C3.65 9 5.3 9 7 9 C7 9.33 7 9.66 7 10 C5.35 10 3.7 10 2 10 C2 12.64 2 15.28 2 18 C3.98 18 5.96 18 8 18 C8 18.33 8 18.66 8 19 C5.36 19 2.72 19 0 19 C0 12.73 0 6.46 0 0 Z " fill="#262628" transform="translate(13,372)"/>
<path d="M0 0 C1.875 1.5625 1.875 1.5625 3 3 C2.67 3.66 2.34 4.32 2 5 C1.67 4.67 1.34 4.34 1 4 C0.67 4.99 0.34 5.98 0 7 C-2.97 7 -5.94 7 -9 7 C-9 5.68 -9 4.36 -9 3 C-9.66 2.67 -10.32 2.34 -11 2 C-7.00271488 -0.93918024 -4.77749251 -1.45401946 0 0 Z M-6.625 3.4375 C-8.11010465 4.77822672 -8.11010465 4.77822672 -8 6 C-5.69 6 -3.38 6 -1 6 C-1.66 4.68 -2.32 3.36 -3 2 C-5.11192937 1.77914204 -5.11192937 1.77914204 -6.625 3.4375 Z " fill="#463D2C" transform="translate(379,377)"/>
<path d="M0 0 C1.375 2.5625 1.375 2.5625 2 5 C1.236875 5.28875 0.47375 5.5775 -0.3125 5.875 C-3.15029308 6.96269013 -3.15029308 6.96269013 -6 9 C-6.66 9 -7.32 9 -8 9 C-8 8.34 -8 7.68 -8 7 C-8.66 6.67 -9.32 6.34 -10 6 C-7.36 5.34 -4.72 4.68 -2 4 C-4.76264289 3.40267181 -7.16032769 3 -10 3 C-10 2.01 -10 1.02 -10 0 C-6.41478179 -1.24103707 -3.62463216 -1.10314892 0 0 Z " fill="#3D372B" transform="translate(208,377)"/>
<path d="M0 0 C0.33 0 0.66 0 1 0 C1 6.27 1 12.54 1 19 C1.66 18.67 2.32 18.34 3 18 C3 15.36 3 12.72 3 10 C4.65 10 6.3 10 8 10 C6.68 10.33 5.36 10.66 4 11 C4 12.98 4 14.96 4 17 C7.465 16.505 7.465 16.505 11 16 C11.33 16.99 11.66 17.98 12 19 C11 20 11 20 8.49609375 20.09765625 C5.6640625 20.06510417 2.83203125 20.03255208 0 20 C0 13.4 0 6.8 0 0 Z " fill="#5D4D2F" transform="translate(12,372)"/>
<path d="M0 0 C0.66 0 1.32 0 2 0 C4.14006369 6.42019108 2.95781181 13.41504378 2 20 C1.34 20 0.68 20 0 20 C0 13.4 0 6.8 0 0 Z " fill="#2B2A29" transform="translate(351,377)"/>
<path d="M0 0 C2.23892859 2.82299691 2 4.2791079 2 8 C0.68 8 -0.64 8 -2 8 C-2 6.35 -2 4.7 -2 3 C-3.65 3 -5.3 3 -7 3 C-7 2.34 -7 1.68 -7 1 C-7.66 0.67 -8.32 0.34 -9 0 C-5.81926598 -1.59036701 -3.37573597 -0.78365299 0 0 Z " fill="#40392B" transform="translate(192,377)"/>
<path d="M0 0 C0.99 0 1.98 0 3 0 C3 4.95 3 9.9 3 15 C2.01 15 1.02 15 0 15 C-1.14229879 11.57310364 -0.90861076 9.38897782 -0.5625 5.8125 C-0.46066406 4.72582031 -0.35882813 3.63914062 -0.25390625 2.51953125 C-0.17011719 1.68808594 -0.08632813 0.85664063 0 0 Z " fill="#232528" transform="translate(41,377)"/>
<path d="M0 0 C0.99 0 1.98 0 3 0 C3 4.95 3 9.9 3 15 C2.01 15 1.02 15 0 15 C0 10.05 0 5.1 0 0 Z " fill="#3F392B" transform="translate(227,377)"/>
<path d="M0 0 C0.99 0 1.98 0 3 0 C3 4.95 3 9.9 3 15 C2.01 15 1.02 15 0 15 C0 10.05 0 5.1 0 0 Z " fill="#2B2A29" transform="translate(108,377)"/>
<path d="M0 0 C0.99 0 1.98 0 3 0 C3 4.95 3 9.9 3 15 C2.01 15 1.02 15 0 15 C0 10.05 0 5.1 0 0 Z " fill="#2B2A29" transform="translate(49,377)"/>
<path d="M0 0 C0.99 0 1.98 0 3 0 C3 4.95 3 9.9 3 15 C2.01 15 1.02 15 0 15 C0 10.05 0 5.1 0 0 Z " fill="#232428" transform="translate(452,377)"/>
<path d="M0 0 C0.99 0 1.98 0 3 0 C3 4.95 3 9.9 3 15 C2.01 15 1.02 15 0 15 C0 10.05 0 5.1 0 0 Z " fill="#292829" transform="translate(251,377)"/>
<path d="M0 0 C1.32 0.33 2.64 0.66 4 1 C4 5.29 4 9.58 4 14 C3.01 14 2.02 14 1 14 C0.67 9.38 0.34 4.76 0 0 Z " fill="#2E2C29" transform="translate(486,378)"/>
<path d="M0 0 C0.99 0.33 1.98 0.66 3 1 C3 5.29 3 9.58 3 14 C2.01 14 1.02 14 0 14 C0 9.38 0 4.76 0 0 Z " fill="#272728" transform="translate(296,378)"/>
<path d="M0 0 C1.32 0 2.64 0 4 0 C3.835 0.495 3.67 0.99 3.5 1.5 C2.79311182 5.03444089 2.93994845 8.39690701 3 12 C1.68 11.67 0.36 11.34 -1 11 C-1.0270043 9.54176788 -1.04639787 8.08339325 -1.0625 6.625 C-1.07410156 5.81289063 -1.08570313 5.00078125 -1.09765625 4.1640625 C-1 2 -1 2 0 0 Z " fill="#2D2B29" transform="translate(314,378)"/>
<path d="M0 0 C0.515625 0.515625 1.03125 1.03125 1.5625 1.5625 C4.9710271 3.57265701 7.23106857 2.79727396 11 2 C11 3.32 11 4.64 11 6 C6.62855218 7.01661577 3.99531924 7.16888759 0 5 C-0.33 4.34 -0.66 3.68 -1 3 C-0.67 2.01 -0.34 1.02 0 0 Z " fill="#3F382B" transform="translate(182,386)"/>
<path d="M0 0 C0 4 0 4 -1 6 C-1.66 5.01 -2.32 4.02 -3 3 C-5.16874252 3.50603992 -6.99967627 3.99983813 -9 5 C-9 4.34 -9 3.68 -9 3 C-9.66 3 -10.32 3 -11 3 C-11 2.34 -11 1.68 -11 1 C-6.92630576 -1.03684712 -4.41062136 -1.0257259 0 0 Z " fill="#433B2B" transform="translate(419,377)"/>
<path d="M0 0 C0.66 0 1.32 0 2 0 C2 5.61 2 11.22 2 17 C1.34 17 0.68 17 0 17 C-0.06058594 16.31292969 -0.12117188 15.62585938 -0.18359375 14.91796875 C-0.26738281 14.01691406 -0.35117187 13.11585938 -0.4375 12.1875 C-0.51871094 11.29417969 -0.59992188 10.40085937 -0.68359375 9.48046875 C-0.93489767 6.87256441 -0.93489767 6.87256441 -2 4 C-1.34 4 -0.68 4 0 4 C0 2.68 0 1.36 0 0 Z " fill="#262628" transform="translate(441,373)"/>
<path d="M0 0 C1.32 0 2.64 0 4 0 C6.48887372 4.68493876 5.85687773 7.9444214 5 13 C3.09610151 10.14415227 2.30537823 8.0688238 1.375 4.8125 C0.98441406 3.46091797 0.98441406 3.46091797 0.5859375 2.08203125 C0.39257812 1.39496094 0.19921875 0.70789063 0 0 Z " fill="#3B362B" transform="translate(233,377)"/>
<path d="M0 0 C0.99 0.66 1.98 1.32 3 2 C6.63939932 1.68269476 6.63939932 1.68269476 10 1 C10 2.32 10 3.64 10 5 C5.62855218 6.01661577 2.99531924 6.16888759 -1 4 C-1.33 3.34 -1.66 2.68 -2 2 C-1.34 2 -0.68 2 0 2 C0 1.34 0 0.68 0 0 Z " fill="#3F382B" transform="translate(410,387)"/>
<path d="M0 0 C0 2.64 0 5.28 0 8 C4.14093698 8.20970559 4.14093698 8.20970559 8 7 C7.67 7.99 7.34 8.98 7 10 C0.6217765 10.36103152 0.6217765 10.36103152 -1.9375 8.875 C-3.44484863 6.214973 -3.19986253 3.99793795 -3 1 C-1 0 -1 0 0 0 Z " fill="#473E2C" transform="translate(462,380)"/>
<path d="M0 0 C1.485 0.99 1.485 0.99 3 2 C6.63939932 1.68269476 6.63939932 1.68269476 10 1 C10 2.32 10 3.64 10 5 C3.6 6.23076923 3.6 6.23076923 0.5625 5.0625 C0.046875 4.711875 -0.46875 4.36125 -1 4 C-0.67 2.68 -0.34 1.36 0 0 Z " fill="#3D372B" transform="translate(371,387)"/>
<path d="M0 0 C1.375 2.0625 1.375 2.0625 2 4 C1.67 4 1.34 4 1 4 C0.67 5.65 0.34 7.3 0 9 C-0.33 9 -0.66 9 -1 9 C-1 7.02 -1 5.04 -1 3 C-2.65 3 -4.3 3 -6 3 C-6 2.34 -6 1.68 -6 1 C-6.66 0.67 -7.32 0.34 -8 0 C-5.04063954 -1.47968023 -3.13239866 -0.84835797 0 0 Z " fill="#433B2B" transform="translate(324,377)"/>
<path d="M0 0 C0 0.99 0 1.98 0 3 C-2.33333333 3 -4.66666667 3 -7 3 C-7.33 3.66 -7.66 4.32 -8 5 C-8.33 4.01 -8.66 3.02 -9 2 C-9.66 1.34 -10.32 0.68 -11 0 C-7.01803543 -1.05404945 -4.01804691 -0.84098656 0 0 Z " fill="#423A2B" transform="translate(307,377)"/>
<path d="M0 0 C0 2.97 0 5.94 0 9 C-1.32 8.34 -2.64 7.68 -4 7 C-3.67 5.35 -3.34 3.7 -3 2 C-4.65 2 -6.3 2 -8 2 C-8 1.67 -8 1.34 -8 1 C-2.25 0 -2.25 0 0 0 Z " fill="#222428" transform="translate(210,382)"/>
<path d="M0 0 C0.928125 0.33 1.85625 0.66 2.8125 1 C5.92029291 2.14967004 5.92029291 2.14967004 9 2 C9 2.99 9 3.98 9 5 C4.94568308 6.15837626 2.78187881 5.83691257 -1 4 C-0.67 2.68 -0.34 1.36 0 0 Z " fill="#3E382B" transform="translate(427,387)"/>
<path d="M0 0 C0.99 0 1.98 0 3 0 C4.85776765 3.13498292 5.20140476 5.37471432 5 9 C4.01 9.33 3.02 9.66 2 10 C1.34 6.7 0.68 3.4 0 0 Z " fill="#3E372B" transform="translate(84,377)"/>
<path d="M0 0 C2.57781906 2.57781906 2.62129616 4.4401839 3 8 C2 9 2 9 -1.0625 9.0625 C-2.031875 9.041875 -3.00125 9.02125 -4 9 C-4 8.34 -4 7.68 -4 7 C-3.01 6.67 -2.02 6.34 -1 6 C-0.67 4.02 -0.34 2.04 0 0 Z " fill="#40392B" transform="translate(274,388)"/>
<path d="M0 0 C1.65 0.99 3.3 1.98 5 3 C5 2.34 5 1.68 5 1 C5.66 1 6.32 1 7 1 C7.33 2.32 7.66 3.64 8 5 C5.08517222 5.80967438 3.53886783 6.21845993 0.6875 5.0625 C0.130625 4.711875 -0.42625 4.36125 -1 4 C-0.67 2.68 -0.34 1.36 0 0 Z " fill="#433B2B" transform="translate(316,387)"/>
<path d="M0 0 C0.66 0 1.32 0 2 0 C2.33 3.3 2.66 6.6 3 10 C1.68 9.34 0.36 8.68 -1 8 C-1.04241723 5.66705225 -1.04092937 3.33297433 -1 1 C-0.67 0.67 -0.34 0.34 0 0 Z " fill="#2D2C29" transform="translate(425,380)"/>
<path d="M0 0 C0.33 0.99 0.66 1.98 1 3 C3.64 3 6.28 3 9 3 C9 3.33 9 3.66 9 4 C6.69 4.33 4.38 4.66 2 5 C1.67 5.99 1.34 6.98 1 8 C0.34 8 -0.32 8 -1 8 C-1.125 2.25 -1.125 2.25 0 0 Z " fill="#212328" transform="translate(181,381)"/>
<path d="M0 0 C-2.91403262 1.94268841 -5.85808576 3.46395304 -9 5 C-8.625 2.5625 -8.625 2.5625 -8 0 C-5.13822943 -1.43088528 -3.06624227 -0.59991697 0 0 Z " fill="#453C2C" transform="translate(489,377)"/>
<path d="M0 0 C1.32 1.65 2.64 3.3 4 5 C0.04 5 -3.92 5 -8 5 C-6.68 4.34 -5.36 3.68 -4 3 C-2.64886795 2.02418241 -1.31053056 1.02970259 0 0 Z " fill="#423A2B" transform="translate(206,387)"/>
<path d="M0 0 C2.31 0.33 4.62 0.66 7 1 C7 1.99 7 2.98 7 4 C4.69 4 2.38 4 0 4 C0 2.68 0 1.36 0 0 Z " fill="#443B2C" transform="translate(158,376)"/>
<path d="M0 0 C1.67542976 0.28604898 3.34385343 0.61781233 5 1 C5 1.99 5 2.98 5 4 C3.02 4 1.04 4 -1 4 C-1 1 -1 1 0 0 Z " fill="#3D372B" transform="translate(119,388)"/>
<path d="M0 0 C0.99 0.66 1.98 1.32 3 2 C3 2.99 3 3.98 3 5 C-0.63 5 -4.26 5 -8 5 C-8 4.67 -8 4.34 -8 4 C-5.36 4 -2.72 4 0 4 C0 2.68 0 1.36 0 0 Z " fill="#222428" transform="translate(379,380)"/>
<path d="M0 0 C1.65 0.33 3.3 0.66 5 1 C5 1.99 5 2.98 5 4 C3.02 4 1.04 4 -1 4 C-1.33 3.34 -1.66 2.68 -2 2 C-1.34 2 -0.68 2 0 2 C0 1.34 0 0.68 0 0 Z " fill="#433B2B" transform="translate(218,388)"/>
<path d="M0 0 C0.5625 1.9375 0.5625 1.9375 1 4 C0 5 0 5 -3.5625 5.0625 C-4.696875 5.041875 -5.83125 5.02125 -7 5 C-6.01 4.34 -5.02 3.68 -4 3 C-2.66209359 2.00612666 -1.32781878 1.0073108 0 0 Z " fill="#3B352B" transform="translate(40,387)"/>
<path d="M0 0 C-2 3 -2 3 -4.625 3.6875 C-5.800625 3.8421875 -5.800625 3.8421875 -7 4 C-7 3.34 -7 2.68 -7 2 C-7.66 1.67 -8.32 1.34 -9 1 C-5.8035914 -0.06546953 -3.34252724 -0.07427838 0 0 Z " fill="#5C4C2E" transform="translate(207,382)"/>
<path d="M0 0 C-1.98 1.32 -3.96 2.64 -6 4 C-6.33 2.68 -6.66 1.36 -7 0 C-3.86650268 -1.04449911 -3.01031744 -0.93423645 0 0 Z " fill="#4F442D" transform="translate(360,377)"/>
<path d="M0 0 C0.99 0 1.98 0 3 0 C3 0.99 3 1.98 3 3 C2.01 3 1.02 3 0 3 C0 2.01 0 1.02 0 0 Z " fill="#423B2C" transform="translate(227,371)"/>
<path d="M0 0 C0.99 0 1.98 0 3 0 C3 0.99 3 1.98 3 3 C2.01 3 1.02 3 0 3 C0 2.01 0 1.02 0 0 Z " fill="#2F2D29" transform="translate(49,371)"/>
<path d="M0 0 C0.99 0 1.98 0 3 0 C3 0.99 3 1.98 3 3 C2.01 3 1.02 3 0 3 C0 2.01 0 1.02 0 0 Z " fill="#282829" transform="translate(452,371)"/>
<path d="M0 0 C0.99 0 1.98 0 3 0 C3 0.99 3 1.98 3 3 C2.01 3 1.02 3 0 3 C0 2.01 0 1.02 0 0 Z " fill="#2D2C29" transform="translate(251,371)"/>
<path d="M0 0 C0.99 0 1.98 0 3 0 C3 0.99 3 1.98 3 3 C2.01 3 1.02 3 0 3 C0 2.01 0 1.02 0 0 Z " fill="#302E2A" transform="translate(108,371)"/>
</svg>
